# xmcd
#
# Track frame offsets:
#	150
#	15942
#	31300
#	47017
#	62364
#	78115
#	90245
#	110002
#	129906
#	145165
#	165580
#
# Disc length: 2393 seconds
#
# Revision: 3
# Processed by: cddbd v1.5.2PL0 Copyright (c) Steve Scherf et al.
# Submitted via: EasyCDDAExtractor 16.0.9.1
#
DISCID=7409570b
DTITLE=Magic Slim and The Teardrops - Gravel Road
DYEAR=1990
DGENRE=Blues
TTITLE0=Cold Women With Warm Hearts
TTITLE1=Gravel Road
TTITLE2=Hard To Handle
TTITLE3=Bad Luck Is Fallin'
TTITLE4=Pretty Girls Everywhere
TTITLE5=Further On Up The Road
TTITLE6=Mustang Sally
TTITLE7=Prisoner Of Love
TTITLE8=Before You Accuse Me
TTITLE9=Please Don't Waste My time
TTITLE10=Slim's Hideaway
EXTD=
EXTT0=
EXTT1=
EXTT2=
EXTT3=
EXTT4=
EXTT5=
EXTT6=
EXTT7=
EXTT8=
EXTT9=
EXTT10=
PLAYORDER=
